<mxfile host="65bd71144e">
    <diagram id="h0mmQfKPP6qvMFlj2Vsx" name="Page-1">
        <mxGraphModel dx="980" dy="1159" grid="0" gridSize="10" guides="1" tooltips="1" connect="1" arrows="1" fold="1" page="0" pageScale="1" pageWidth="1100" pageHeight="850" background="#ffffff" math="0" shadow="0">
            <root>
                <mxCell id="0"/>
                <mxCell id="1" parent="0"/>
                <mxCell id="2" value="&lt;b&gt;&lt;font color=&quot;#000000&quot;&gt;Murid&lt;/font&gt;&lt;/b&gt;" style="shape=umlActor;verticalLabelPosition=bottom;verticalAlign=top;html=1;outlineConnect=0;rounded=1;fillColor=#FFCC99;strokeWidth=2;strokeColor=#000000;" parent="1" vertex="1">
                    <mxGeometry x="939" y="409" width="30" height="60" as="geometry"/>
                </mxCell>
                <mxCell id="89" style="edgeStyle=none;html=1;entryX=0;entryY=0.5;entryDx=0;entryDy=0;endArrow=none;endFill=0;strokeWidth=2;strokeColor=#000000;" edge="1" parent="1" target="74">
                    <mxGeometry relative="1" as="geometry">
                        <mxPoint x="239" y="314" as="sourcePoint"/>
                    </mxGeometry>
                </mxCell>
                <mxCell id="83" value="Ujian PHB" style="swimlane;whiteSpace=wrap;html=1;strokeColor=#000000;" vertex="1" parent="1">
                    <mxGeometry x="392" y="-43" width="431" height="640" as="geometry"/>
                </mxCell>
                <mxCell id="74" value="Melihat semua rapor murid" style="ellipse;whiteSpace=wrap;rounded=1;fillColor=#99FF99;fontColor=#000000;strokeColor=#000000;strokeWidth=2;fontStyle=1;fontSize=12;labelBorderColor=none;html=1;" parent="83" vertex="1">
                    <mxGeometry x="34" y="53" width="100" height="70" as="geometry"/>
                </mxCell>
                <mxCell id="75" value="Melihat semua akun yang sudah dibuat" style="ellipse;whiteSpace=wrap;rounded=1;fillColor=#99FF99;fontColor=#000000;strokeColor=#000000;strokeWidth=2;fontStyle=1;fontSize=12;labelBorderColor=none;html=1;" parent="83" vertex="1">
                    <mxGeometry x="26" y="148" width="116" height="76" as="geometry"/>
                </mxCell>
                <mxCell id="76" value="Melihat semua nilai murid yg selesai mengerjakan ujian" style="ellipse;whiteSpace=wrap;rounded=1;fillColor=#99FF99;fontColor=#000000;strokeColor=#000000;strokeWidth=2;fontStyle=1;fontSize=12;labelBorderColor=none;html=1;" parent="83" vertex="1">
                    <mxGeometry x="18" y="240" width="199" height="77" as="geometry"/>
                </mxCell>
                <mxCell id="77" value="Melihat semua murid yg belum/tidak mengerjakan ujian" style="ellipse;whiteSpace=wrap;rounded=1;fillColor=#99FF99;fontColor=#000000;strokeColor=#000000;strokeWidth=2;fontStyle=1;fontSize=12;labelBorderColor=none;html=1;" parent="83" vertex="1">
                    <mxGeometry x="15" y="339.75" width="205" height="65" as="geometry"/>
                </mxCell>
                <mxCell id="55" value="Mengatur waktu ujian" style="ellipse;whiteSpace=wrap;rounded=1;fillColor=#99FF99;fontColor=#000000;strokeColor=#000000;strokeWidth=2;fontStyle=1;fontSize=12;labelBorderColor=none;html=1;" parent="83" vertex="1">
                    <mxGeometry x="21" y="423" width="100" height="70" as="geometry"/>
                </mxCell>
                <mxCell id="56" value="Membuat akun guru dan murid" style="ellipse;whiteSpace=wrap;rounded=1;fillColor=#99FF99;fontColor=#000000;strokeColor=#000000;strokeWidth=2;fontStyle=1;fontSize=12;labelBorderColor=none;html=1;" parent="83" vertex="1">
                    <mxGeometry x="26" y="515" width="100" height="70" as="geometry"/>
                </mxCell>
                <mxCell id="66" value="Melihat rapor dirinya sendiri" style="ellipse;whiteSpace=wrap;html=1;rounded=1;fontColor=#000000;fontStyle=1;fillColor=#FFCC99;strokeColor=#000000;strokeWidth=2;" parent="83" vertex="1">
                    <mxGeometry x="262" y="414" width="107" height="66" as="geometry"/>
                </mxCell>
                <mxCell id="62" value="Mengerjakan ujian" style="ellipse;whiteSpace=wrap;html=1;rounded=1;fontColor=#000000;fontStyle=1;fillColor=#FFCC99;strokeColor=#000000;strokeWidth=2;" parent="83" vertex="1">
                    <mxGeometry x="265.9999999999998" y="498" width="90" height="60" as="geometry"/>
                </mxCell>
                <mxCell id="70" value="Melihat murid yg belum/tidak mengerjakan soal ujian yang dibuat" style="ellipse;whiteSpace=wrap;html=1;rounded=1;strokeColor=#000000;strokeWidth=2;fillColor=#FFFF99;fontColor=#000000;fontStyle=1" parent="83" vertex="1">
                    <mxGeometry x="195" y="38" width="161" height="80" as="geometry"/>
                </mxCell>
                <mxCell id="68" value="Melihat nilai murid yg selesai mengerjakan soal ujian yang dibuat" style="ellipse;whiteSpace=wrap;html=1;rounded=1;strokeColor=#000000;strokeWidth=2;fillColor=#FFFF99;fontColor=#000000;fontStyle=1" parent="83" vertex="1">
                    <mxGeometry x="201" y="132" width="202" height="85.5" as="geometry"/>
                </mxCell>
                <mxCell id="59" value="Membuat soal ujian" style="ellipse;whiteSpace=wrap;html=1;rounded=1;strokeColor=#000000;strokeWidth=2;fillColor=#FFFF99;fontColor=#000000;fontStyle=1" parent="83" vertex="1">
                    <mxGeometry x="250.99999999999977" y="229" width="110" height="70" as="geometry"/>
                </mxCell>
                <mxCell id="115" value="&lt;b&gt;Login/Logout&lt;/b&gt;" style="ellipse;whiteSpace=wrap;html=1;strokeColor=#666666;strokeWidth=1;fontColor=#333333;fillColor=#f5f5f5;" vertex="1" parent="83">
                    <mxGeometry x="159.88" y="585" width="111.25" height="43" as="geometry"/>
                </mxCell>
                <mxCell id="121" value="&lt;b&gt;Lupa Password&lt;/b&gt;" style="ellipse;whiteSpace=wrap;html=1;strokeColor=#666666;strokeWidth=1;fontColor=#333333;fillColor=#f5f5f5;" vertex="1" parent="83">
                    <mxGeometry x="269" y="326" width="111.25" height="43" as="geometry"/>
                </mxCell>
                <mxCell id="90" style="edgeStyle=none;html=1;endArrow=none;endFill=0;strokeWidth=2;strokeColor=#000000;entryX=0;entryY=0.5;entryDx=0;entryDy=0;" edge="1" parent="1" target="75">
                    <mxGeometry relative="1" as="geometry">
                        <mxPoint x="240" y="323" as="sourcePoint"/>
                        <mxPoint x="472" y="206" as="targetPoint"/>
                    </mxGeometry>
                </mxCell>
                <mxCell id="91" style="edgeStyle=none;html=1;endArrow=none;endFill=0;strokeWidth=2;strokeColor=#000000;entryX=0;entryY=0.5;entryDx=0;entryDy=0;" edge="1" parent="1" target="76">
                    <mxGeometry relative="1" as="geometry">
                        <mxPoint x="247" y="332" as="sourcePoint"/>
                        <mxPoint x="538" y="214" as="targetPoint"/>
                    </mxGeometry>
                </mxCell>
                <mxCell id="92" style="edgeStyle=none;html=1;endArrow=none;endFill=0;strokeWidth=2;strokeColor=#000000;entryX=0;entryY=0.5;entryDx=0;entryDy=0;startArrow=none;" edge="1" parent="1" target="77">
                    <mxGeometry relative="1" as="geometry">
                        <mxPoint x="247" y="344" as="sourcePoint"/>
                        <mxPoint x="428.99999999999864" y="301.5000000000001" as="targetPoint"/>
                    </mxGeometry>
                </mxCell>
                <mxCell id="93" style="edgeStyle=none;html=1;endArrow=none;endFill=0;strokeWidth=2;strokeColor=#000000;entryX=0;entryY=0.5;entryDx=0;entryDy=0;" edge="1" parent="1" target="55">
                    <mxGeometry relative="1" as="geometry">
                        <mxPoint x="248" y="354" as="sourcePoint"/>
                        <mxPoint x="426.00000000000045" y="394.5" as="targetPoint"/>
                    </mxGeometry>
                </mxCell>
                <mxCell id="94" style="edgeStyle=none;html=1;endArrow=none;endFill=0;strokeWidth=2;strokeColor=#000000;entryX=0;entryY=0.5;entryDx=0;entryDy=0;" edge="1" parent="1" target="56">
                    <mxGeometry relative="1" as="geometry">
                        <mxPoint x="247" y="366" as="sourcePoint"/>
                        <mxPoint x="478.50000000000273" y="480" as="targetPoint"/>
                    </mxGeometry>
                </mxCell>
                <mxCell id="4" value="&lt;b&gt;&lt;font color=&quot;#000000&quot;&gt;Guru&lt;/font&gt;&lt;/b&gt;" style="shape=umlActor;verticalLabelPosition=bottom;verticalAlign=top;html=1;outlineConnect=0;rounded=1;fillColor=#FFFF99;strokeColor=#000000;strokeWidth=2;" parent="1" vertex="1">
                    <mxGeometry x="939" y="110" width="30" height="60" as="geometry"/>
                </mxCell>
                <mxCell id="5" value="&lt;font size=&quot;1&quot; color=&quot;#000000&quot;&gt;&lt;b style=&quot;font-size: 12px;&quot;&gt;Admin&lt;/b&gt;&lt;/font&gt;" style="shape=umlActor;verticalLabelPosition=bottom;verticalAlign=top;html=1;outlineConnect=0;rounded=1;strokeColor=#000000;strokeWidth=2;perimeterSpacing=0;fillColor=#99FF99;" parent="1" vertex="1">
                    <mxGeometry x="209" y="315" width="30" height="60" as="geometry"/>
                </mxCell>
                <mxCell id="107" style="edgeStyle=none;html=1;exitX=1;exitY=0.5;exitDx=0;exitDy=0;strokeColor=#000000;strokeWidth=2;endArrow=none;endFill=0;" edge="1" parent="1" source="70">
                    <mxGeometry relative="1" as="geometry">
                        <mxPoint x="931.0513305664062" y="133.51298904418945" as="targetPoint"/>
                    </mxGeometry>
                </mxCell>
                <mxCell id="108" style="edgeStyle=none;html=1;exitX=1;exitY=0.5;exitDx=0;exitDy=0;strokeColor=#000000;strokeWidth=2;endArrow=none;endFill=0;" edge="1" parent="1" source="68">
                    <mxGeometry relative="1" as="geometry">
                        <mxPoint x="929.6484375000002" y="143.14285714285722" as="targetPoint"/>
                    </mxGeometry>
                </mxCell>
                <mxCell id="109" style="edgeStyle=none;html=1;exitX=1;exitY=0.5;exitDx=0;exitDy=0;strokeColor=#000000;strokeWidth=2;endArrow=none;endFill=0;" edge="1" parent="1" source="59">
                    <mxGeometry relative="1" as="geometry">
                        <mxPoint x="932.6245989118304" y="159.93595014299672" as="targetPoint"/>
                    </mxGeometry>
                </mxCell>
                <mxCell id="110" style="edgeStyle=none;html=1;exitX=1;exitY=0.5;exitDx=0;exitDy=0;strokeColor=#000000;strokeWidth=2;endArrow=none;endFill=0;" edge="1" parent="1" source="66">
                    <mxGeometry relative="1" as="geometry">
                        <mxPoint x="926.5076904296875" y="432.8436737060547" as="targetPoint"/>
                    </mxGeometry>
                </mxCell>
                <mxCell id="111" style="edgeStyle=none;html=1;exitX=1;exitY=0.5;exitDx=0;exitDy=0;strokeColor=#000000;strokeWidth=2;endArrow=none;endFill=0;" edge="1" parent="1" source="62">
                    <mxGeometry relative="1" as="geometry">
                        <mxPoint x="922.3410034179688" y="447.8436737060547" as="targetPoint"/>
                    </mxGeometry>
                </mxCell>
                <mxCell id="113" value="&lt;font color=&quot;#000000&quot;&gt;User&lt;/font&gt;" style="shape=umlActor;verticalLabelPosition=bottom;verticalAlign=top;html=1;outlineConnect=0;strokeColor=#000000;strokeWidth=1;" vertex="1" parent="1">
                    <mxGeometry x="592.5" y="662" width="30" height="60" as="geometry"/>
                </mxCell>
                <mxCell id="116" style="edgeStyle=none;html=1;exitX=0.5;exitY=1;exitDx=0;exitDy=0;strokeColor=#000000;strokeWidth=2;fontColor=#000000;endArrow=none;endFill=0;" edge="1" parent="1" source="115">
                    <mxGeometry relative="1" as="geometry">
                        <mxPoint x="608" y="648" as="targetPoint"/>
                    </mxGeometry>
                </mxCell>
                <mxCell id="117" style="edgeStyle=none;html=1;exitX=1;exitY=0.5;exitDx=0;exitDy=0;strokeColor=#000000;strokeWidth=2;fontColor=#000000;endArrow=none;endFill=0;" edge="1" parent="1" source="115">
                    <mxGeometry relative="1" as="geometry">
                        <mxPoint x="953" y="494" as="targetPoint"/>
                        <Array as="points">
                            <mxPoint x="956" y="567"/>
                        </Array>
                    </mxGeometry>
                </mxCell>
                <mxCell id="118" style="edgeStyle=none;html=1;exitX=1;exitY=0.5;exitDx=0;exitDy=0;strokeColor=#000000;strokeWidth=2;fontColor=#000000;endArrow=none;endFill=0;" edge="1" parent="1" source="115">
                    <mxGeometry relative="1" as="geometry">
                        <mxPoint x="956.0513305664062" y="198.09632873535156" as="targetPoint"/>
                        <Array as="points">
                            <mxPoint x="1015" y="567"/>
                            <mxPoint x="1008" y="314"/>
                            <mxPoint x="959" y="314"/>
                        </Array>
                    </mxGeometry>
                </mxCell>
                <mxCell id="119" style="edgeStyle=none;html=1;exitX=0;exitY=0.5;exitDx=0;exitDy=0;strokeColor=#000000;strokeWidth=2;fontColor=#000000;endArrow=none;endFill=0;" edge="1" parent="1" source="115">
                    <mxGeometry relative="1" as="geometry">
                        <mxPoint x="224.8013687133789" y="408.51298904418945" as="targetPoint"/>
                        <Array as="points">
                            <mxPoint x="220" y="560"/>
                        </Array>
                    </mxGeometry>
                </mxCell>
                <mxCell id="122" style="edgeStyle=none;html=1;exitX=1;exitY=0.5;exitDx=0;exitDy=0;strokeColor=#000000;strokeWidth=2;fontColor=#000000;endArrow=none;endFill=0;" edge="1" parent="1" source="121">
                    <mxGeometry relative="1" as="geometry">
                        <mxPoint x="928.9680480957031" y="181.42966842651367" as="targetPoint"/>
                    </mxGeometry>
                </mxCell>
                <mxCell id="123" style="edgeStyle=none;html=1;exitX=1;exitY=0.5;exitDx=0;exitDy=0;strokeColor=#000000;strokeWidth=2;fontColor=#000000;endArrow=none;endFill=0;" edge="1" parent="1" source="121">
                    <mxGeometry relative="1" as="geometry">
                        <mxPoint x="924.8014068603516" y="414.76298904418945" as="targetPoint"/>
                    </mxGeometry>
                </mxCell>
            </root>
        </mxGraphModel>
    </diagram>
</mxfile>